<svg xmlns="http://www.w3.org/2000/svg" width="56" height="56" viewBox="0 0 56 56" fill="none" shape-rendering="crispEdges">
  <rect x="4" y="4" width="4" height="4" fill="#BFD0FF"/>
  <rect x="16" y="4" width="4" height="4" fill="#BFD0FF"/>
  <rect x="28" y="4" width="4" height="4" fill="#BFD0FF"/>
  <rect x="40" y="4" width="4" height="4" fill="#BFD0FF"/>
  <rect x="4" y="16" width="4" height="4" fill="#BFD0FF"/>
  <rect x="16" y="16" width="4" height="4" fill="#BFD0FF"/>
  <rect x="28" y="16" width="4" height="4" fill="#BFD0FF"/>
  <rect x="40" y="16" width="4" height="4" fill="#BFD0FF"/>
  <rect x="4" y="28" width="4" height="4" fill="#BFD0FF"/>
  <rect x="16" y="28" width="4" height="4" fill="#BFD0FF"/>
  <rect x="28" y="28" width="4" height="4" fill="#BFD0FF"/>
  <rect x="40" y="28" width="4" height="4" fill="#BFD0FF"/>
  <rect x="4" y="40" width="4" height="4" fill="#BFD0FF"/>
  <rect x="16" y="40" width="4" height="4" fill="#BFD0FF"/>
  <rect x="28" y="40" width="4" height="4" fill="#BFD0FF"/>
  <rect x="40" y="40" width="4" height="4" fill="#BFD0FF"/>
</svg>
