<svg xmlns="http://www.w3.org/2000/svg" width="240" height="12" viewBox="0 0 240 12" shape-rendering="crispEdges">
  <rect width="240" height="12" fill="none"/>
  <rect x="0" y="4" width="10" height="8" fill="#2E63FF"/>
  <rect x="14" y="4" width="10" height="8" fill="#BFD0FF"/>
  <rect x="28" y="4" width="10" height="8" fill="#68D953"/>
  <rect x="46" y="6" width="8" height="4" fill="#BFD0FF"/>
  <rect x="62" y="6" width="8" height="4" fill="#BFD0FF"/>
  <rect x="78" y="6" width="8" height="4" fill="#BFD0FF"/>
  <rect x="94" y="6" width="8" height="4" fill="#BFD0FF"/>
  <rect x="110" y="6" width="8" height="4" fill="#BFD0FF"/>
  <rect x="126" y="6" width="8" height="4" fill="#BFD0FF"/>
  <rect x="142" y="6" width="8" height="4" fill="#BFD0FF"/>
  <rect x="158" y="6" width="8" height="4" fill="#BFD0FF"/>
  <rect x="174" y="6" width="8" height="4" fill="#BFD0FF"/>
  <rect x="190" y="6" width="8" height="4" fill="#BFD0FF"/>
  <rect x="206" y="6" width="8" height="4" fill="#BFD0FF"/>
</svg>
