<svg xmlns="http://www.w3.org/2000/svg" width="420" height="520" viewBox="0 0 420 520" fill="none" shape-rendering="crispEdges"><rect x="0" y="0" width="38" height="6" fill="#111111"/><rect x="0" y="0" width="6" height="38" fill="#111111"/><rect x="8" y="8" width="22" height="4" fill="#2F5BFF"/><rect x="8" y="8" width="4" height="22" fill="#2F5BFF"/><rect x="382" y="0" width="38" height="6" fill="#111111"/><rect x="414" y="0" width="6" height="38" fill="#111111"/><rect x="390" y="8" width="22" height="4" fill="#2F5BFF"/><rect x="408" y="8" width="4" height="22" fill="#2F5BFF"/><rect x="0" y="482" width="6" height="38" fill="#111111"/><rect x="0" y="514" width="38" height="6" fill="#111111"/><rect x="8" y="490" width="4" height="22" fill="#2F5BFF"/><rect x="8" y="508" width="22" height="4" fill="#2F5BFF"/><rect x="414" y="482" width="6" height="38" fill="#111111"/><rect x="382" y="514" width="38" height="6" fill="#111111"/><rect x="408" y="490" width="4" height="22" fill="#2F5BFF"/><rect x="390" y="508" width="22" height="4" fill="#2F5BFF"/></svg>