<svg xmlns="http://www.w3.org/2000/svg" width="96" height="96" viewBox="0 0 96 96" shape-rendering="crispEdges">
  <rect width="96" height="96" fill="none"/>
  <rect x="18" y="24" width="4" height="40" fill="#111"/>
  <rect x="22" y="20" width="52" height="4" fill="#111"/>
  <rect x="74" y="24" width="4" height="40" fill="#111"/>
  <rect x="22" y="64" width="52" height="4" fill="#111"/>
  <rect x="22" y="24" width="52" height="40" fill="#fff"/>
  <polygon points="24,26 48,48 72,26 72,38 48,60 24,38" fill="#2E63FF"/>
  <polygon points="24,62 40,46 24,34" fill="#E8E8E8"/>
  <polygon points="72,62 56,46 72,34" fill="#E8E8E8"/>
  <polygon points="24,62 48,42 72,62" fill="#fff" stroke="none"/>
  <rect x="38" y="28" width="20" height="4" fill="#FFD33D"/>
  <rect x="42" y="24" width="12" height="12" fill="#FFD33D"/>
</svg>
