<svg xmlns="http://www.w3.org/2000/svg" width="96" height="96" viewBox="0 0 96 96" shape-rendering="crispEdges">
  <rect width="96" height="96" fill="none"/>
  <rect x="22" y="26" width="8" height="8" fill="#111"/>
  <rect x="18" y="34" width="8" height="28" fill="#111"/>
  <rect x="26" y="58" width="8" height="8" fill="#111"/>
  <rect x="34" y="66" width="16" height="8" fill="#111"/>
  <rect x="50" y="58" width="8" height="8" fill="#111"/>
  <rect x="58" y="50" width="8" height="8" fill="#111"/>
  <rect x="62" y="42" width="8" height="8" fill="#111"/>
  <rect x="66" y="34" width="8" height="8" fill="#111"/>
  <rect x="24" y="28" width="8" height="6" fill="#2E63FF"/>
  <rect x="20" y="34" width="8" height="26" fill="#2E63FF"/>
  <rect x="28" y="60" width="8" height="6" fill="#2E63FF"/>
  <rect x="36" y="68" width="14" height="6" fill="#2E63FF"/>
  <rect x="50" y="60" width="6" height="6" fill="#2E63FF"/>
  <rect x="58" y="52" width="6" height="6" fill="#2E63FF"/>
  <rect x="62" y="44" width="6" height="6" fill="#2E63FF"/>
  <rect x="66" y="36" width="6" height="6" fill="#2E63FF"/>
  <rect x="70" y="20" width="4" height="8" fill="#FFD33D"/>
  <rect x="74" y="24" width="4" height="8" fill="#FFD33D"/>
  <rect x="78" y="28" width="4" height="8" fill="#FFD33D"/>
  <rect x="66" y="18" width="4" height="4" fill="#FFD33D"/>
  <rect x="78" y="36" width="4" height="4" fill="#FFD33D"/>
  <rect x="72" y="38" width="4" height="8" fill="#FFD33D"/>
  <rect x="76" y="42" width="4" height="8" fill="#FFD33D"/>
</svg>
