<svg xmlns="http://www.w3.org/2000/svg" width="100" height="84" viewBox="0 0 100 84" shape-rendering="crispEdges">
  <rect width="100" height="84" fill="none"/>
  <g transform="translate(12,10) rotate(12 32 24)">
    <rect x="4" y="4" width="60" height="44" fill="#fff"/>
    <rect x="0" y="0" width="4" height="48" fill="#111"/>
    <rect x="4" y="0" width="60" height="4" fill="#111"/>
    <rect x="64" y="4" width="4" height="44" fill="#111"/>
    <rect x="4" y="48" width="60" height="4" fill="#111"/>
    <rect x="18" y="14" width="28" height="4" fill="#2E63FF"/>
    <rect x="18" y="24" width="32" height="4" fill="#2E63FF"/>
    <rect x="18" y="34" width="24" height="4" fill="#2E63FF"/>
    <rect x="50" y="42" width="12" height="12" fill="#68D953"/>
    <rect x="46" y="46" width="4" height="4" fill="#68D953"/>
    <rect x="62" y="46" width="4" height="4" fill="#68D953"/>
    <rect x="50" y="54" width="12" height="4" fill="#68D953"/>
    <rect x="26" y="-4" width="12" height="8" fill="#FFD33D"/>
  </g>
</svg>
