<svg xmlns="http://www.w3.org/2000/svg" width="40" height="40" viewBox="0 0 40 40" fill="none" shape-rendering="crispEdges">
  <rect x="8" y="10" width="20" height="16" fill="#2F5BFF"/>
  <rect x="6" y="8" width="20" height="2" fill="#111111"/>
  <rect x="6" y="10" width="2" height="16" fill="#111111"/>
  <rect x="28" y="10" width="2" height="16" fill="#111111"/>
  <rect x="8" y="26" width="20" height="2" fill="#111111"/>
  <path d="M10 12H26V14H24V16H22V18H20V20H18V18H16V16H14V14H12V16H10V12ZM12 14V16H14V18H16V20H18V22H20V20H22V18H24V16H26V24H10V14H12Z" fill="#FFFFFF"/>
</svg>
