<svg xmlns="http://www.w3.org/2000/svg" width="40" height="40" viewBox="0 0 40 40" fill="none" shape-rendering="crispEdges">
  <path d="M10 10H16V12H18V18H16V20H14V22H16V24H18V26H20V28H22V26H28V32H24V30H20V28H18V26H16V24H14V22H12V20H10V16H8V12H10V10Z" fill="#2F5BFF"/>
  <path d="M10 8H16V10H18V18H16V20H14V22H16V24H18V26H20V28H22V26H28V28H30V32H28V34H22V32H18V30H16V28H14V26H12V24H10V22H8V20H6V12H8V10H10V8ZM10 12H8V18H10V20H12V22H14V24H16V26H18V28H20V30H24V28H26V30H28V28H24V26H22V28H20V26H18V24H16V22H14V20H16V18H18V12H16V10H10V12Z" fill="#111111"/>
</svg>
