<svg xmlns="http://www.w3.org/2000/svg" width="32" height="32" viewBox="0 0 32 32" fill="none" shape-rendering="crispEdges">
  <rect x="2" y="4" width="24" height="18" fill="#2F5BFF"/>
  <rect x="0" y="2" width="24" height="2" fill="#111111"/>
  <rect x="0" y="4" width="2" height="18" fill="#111111"/>
  <rect x="24" y="4" width="2" height="18" fill="#111111"/>
  <rect x="2" y="22" width="22" height="2" fill="#111111"/>
  <rect x="8" y="24" width="6" height="4" fill="#2F5BFF"/>
  <rect x="6" y="24" width="2" height="2" fill="#111111"/>
  <rect x="14" y="24" width="2" height="2" fill="#111111"/>
  <rect x="8" y="26" width="6" height="2" fill="#111111"/>
  <path d="M6 8H20V10H18V12H16V14H14V16H12V14H10V12H8V10H6V8ZM8 10V12H10V14H12V12H14V14H16V12H18V10H8Z" fill="#FFFFFF"/>
</svg>
