<svg xmlns="http://www.w3.org/2000/svg" width="96" height="96" viewBox="0 0 96 96" fill="none" shape-rendering="crispEdges">
  <rect width="96" height="96" fill="none"/>

  <!-- speech bubble -->
  <rect x="64" y="8" width="16" height="14" fill="#FFFFFF"/>
  <rect x="62" y="22" width="4" height="4" fill="#FFFFFF"/>
  <rect x="66" y="10" width="12" height="2" fill="#111111"/>
  <rect x="64" y="12" width="2" height="10" fill="#111111"/>
  <rect x="78" y="12" width="2" height="10" fill="#111111"/>
  <rect x="66" y="22" width="12" height="2" fill="#111111"/>
  <rect x="62" y="24" width="2" height="2" fill="#111111"/>
  <rect x="66" y="24" width="2" height="2" fill="#111111"/>
  <path d="M70 14h4v2h2v4h-2v2h-4v-2h-2v-4h2v-2z" fill="#2F5BFF"/>

  <!-- hair back -->
  <rect x="18" y="24" width="30" height="8" fill="#444348"/>
  <rect x="16" y="28" width="34" height="10" fill="#444348"/>
  <rect x="14" y="38" width="10" height="18" fill="#444348"/>
  <rect x="24" y="48" width="6" height="14" fill="#444348"/>
  <rect x="40" y="38" width="10" height="20" fill="#444348"/>
  <rect x="34" y="50" width="6" height="10" fill="#444348"/>

  <!-- face -->
  <rect x="24" y="30" width="18" height="18" fill="#F5C9B6"/>
  <rect x="26" y="48" width="14" height="4" fill="#E8B5A2"/>

  <!-- bangs and side hair -->
  <rect x="22" y="26" width="22" height="6" fill="#3A393E"/>
  <rect x="20" y="30" width="6" height="10" fill="#3A393E"/>
  <rect x="38" y="30" width="6" height="10" fill="#3A393E"/>
  <rect x="18" y="40" width="6" height="12" fill="#3A393E"/>
  <rect x="40" y="40" width="6" height="12" fill="#3A393E"/>

  <!-- eyes -->
  <rect x="28" y="38" width="2" height="2" fill="#111111"/>
  <rect x="35" y="38" width="2" height="2" fill="#111111"/>

  <!-- blush -->
  <rect x="24" y="42" width="4" height="2" fill="#F39AA8"/>
  <rect x="38" y="42" width="4" height="2" fill="#F39AA8"/>

  <!-- mouth -->
  <rect x="31" y="44" width="4" height="2" fill="#C46A75"/>

  <!-- neck -->
  <rect x="30" y="52" width="6" height="4" fill="#F5C9B6"/>

  <!-- shirt -->
  <rect x="20" y="56" width="28" height="14" fill="#2F5BFF"/>
  <rect x="18" y="58" width="4" height="10" fill="#2F5BFF"/>
  <rect x="46" y="58" width="4" height="10" fill="#2F5BFF"/>
  <rect x="28" y="56" width="10" height="6" fill="#DCE6FF"/>
  <rect x="30" y="62" width="6" height="4" fill="#DCE6FF"/>

  <!-- outline accents -->
  <rect x="20" y="24" width="28" height="2" fill="#111111"/>
  <rect x="14" y="38" width="2" height="18" fill="#111111"/>
  <rect x="48" y="38" width="2" height="20" fill="#111111"/>
  <rect x="18" y="68" width="32" height="2" fill="#111111"/>
</svg>
